<svg width="35" height="35" viewBox="0 0 35 35" fill="none" xmlns="http://www.w3.org/2000/svg">
<path d="M19.4336 17.5L34.5995 2.334C35.1335 1.80005 35.1335 0.93435 34.5995 0.400465C34.0656 -0.13342 33.1999 -0.133488 32.666 0.400465L17.5 15.5665L2.334 0.400465C1.80005 -0.133488 0.93435 -0.133488 0.400465 0.400465C-0.13342 0.934419 -0.133488 1.80012 0.400465 2.334L15.5664 17.5L0.400465 32.666C-0.133488 33.1999 -0.133488 34.0656 0.400465 34.5995C0.667408 34.8665 1.01734 34.9999 1.36727 34.9999C1.7172 34.9999 2.06706 34.8665 2.33407 34.5995L17.5 19.4336L32.6659 34.5995C32.9329 34.8665 33.2828 34.9999 33.6327 34.9999C33.9827 34.9999 34.3325 34.8665 34.5995 34.5995C35.1335 34.0656 35.1335 33.1999 34.5995 32.666L19.4336 17.5Z" fill="black"/>
</svg>
