<svg width="35" height="36" viewBox="0 0 35 36" fill="none" xmlns="http://www.w3.org/2000/svg">
<path d="M19.4336 17.6877L34.5995 2.52166C35.1335 1.9877 35.1335 1.122 34.5995 0.588118C34.0656 0.0542326 33.1999 0.0541642 32.666 0.588118L17.5 15.7541L2.334 0.588118C1.80005 0.0541642 0.93435 0.0541642 0.400465 0.588118C-0.13342 1.12207 -0.133488 1.98777 0.400465 2.52166L15.5664 17.6876L0.400465 32.8536C-0.133488 33.3876 -0.133488 34.2533 0.400465 34.7872C0.667408 35.0541 1.01734 35.1876 1.36727 35.1876C1.7172 35.1876 2.06706 35.0541 2.33407 34.7872L17.5 19.6212L32.6659 34.7872C32.9329 35.0541 33.2828 35.1876 33.6327 35.1876C33.9827 35.1876 34.3325 35.0541 34.5995 34.7872C35.1335 34.2532 35.1335 33.3875 34.5995 32.8536L19.4336 17.6877Z" fill="white"/>
</svg>
